<mxfile host="app.diagrams.net" modified="2021-12-27T13:07:37.607Z" agent="5.0 (Macintosh)" etag="fI9Klyab1fdzrJgSy2pg" version="16.0.0" type="github">
  <diagram id="KzIHn6G7oRu6zTpSj9_W" name="Page-1">
    <mxGraphModel dx="1426" dy="767" grid="1" gridSize="10" guides="1" tooltips="1" connect="1" arrows="1" fold="1" page="1" pageScale="1" pageWidth="827" pageHeight="1169" math="0" shadow="0">
      <root>
        <mxCell id="0" />
        <mxCell id="1" parent="0" />
        <mxCell id="NZGxTVPPBpQnY7gY4zcs-7" value="Clients" style="rounded=0;whiteSpace=wrap;html=1;fillColor=#0050ef;strokeColor=#001DBC;fontColor=#ffffff;" parent="1" vertex="1">
          <mxGeometry x="555" y="105" width="70" height="30" as="geometry" />
        </mxCell>
        <mxCell id="NZGxTVPPBpQnY7gY4zcs-8" value="Address" style="rounded=0;whiteSpace=wrap;html=1;fillColor=#0050ef;fontColor=#ffffff;strokeColor=#001DBC;" parent="1" vertex="1">
          <mxGeometry x="150" y="90" width="60" height="30" as="geometry" />
        </mxCell>
        <mxCell id="NZGxTVPPBpQnY7gY4zcs-9" value="SellerCompany" style="rounded=0;whiteSpace=wrap;html=1;fillColor=#0050ef;fontColor=#ffffff;strokeColor=#001DBC;" parent="1" vertex="1">
          <mxGeometry x="205" y="280" width="100" height="40" as="geometry" />
        </mxCell>
        <mxCell id="NZGxTVPPBpQnY7gY4zcs-10" value="Orders" style="rounded=0;whiteSpace=wrap;html=1;fillColor=#0050ef;fontColor=#ffffff;strokeColor=#001DBC;" parent="1" vertex="1">
          <mxGeometry x="560" y="255" width="60" height="30" as="geometry" />
        </mxCell>
        <mxCell id="NZGxTVPPBpQnY7gY4zcs-11" value="VehicleOffers" style="rounded=0;whiteSpace=wrap;html=1;fillColor=#0050ef;fontColor=#ffffff;strokeColor=#001DBC;" parent="1" vertex="1">
          <mxGeometry x="550" y="400.17" width="80" height="40" as="geometry" />
        </mxCell>
        <mxCell id="NZGxTVPPBpQnY7gY4zcs-12" value="Vehicles" style="rounded=0;whiteSpace=wrap;html=1;fillColor=#0050ef;fontColor=#ffffff;strokeColor=#001DBC;" parent="1" vertex="1">
          <mxGeometry x="190" y="510.17" width="60" height="30" as="geometry" />
        </mxCell>
        <mxCell id="NZGxTVPPBpQnY7gY4zcs-13" value="Engine" style="rounded=0;whiteSpace=wrap;html=1;fillColor=#0050ef;fontColor=#ffffff;strokeColor=#001DBC;" parent="1" vertex="1">
          <mxGeometry x="480" y="735.17" width="60" height="30" as="geometry" />
        </mxCell>
        <mxCell id="NZGxTVPPBpQnY7gY4zcs-15" value="Color" style="rounded=0;whiteSpace=wrap;html=1;fillColor=#0050ef;fontColor=#ffffff;strokeColor=#001DBC;" parent="1" vertex="1">
          <mxGeometry x="620" y="605.17" width="65" height="30" as="geometry" />
        </mxCell>
        <mxCell id="NZGxTVPPBpQnY7gY4zcs-21" value="&lt;u&gt;client_id&lt;/u&gt;" style="ellipse;whiteSpace=wrap;html=1;fillColor=#ffe6cc;strokeColor=#d79b00;" parent="1" vertex="1">
          <mxGeometry x="475" y="40" width="70" height="40" as="geometry" />
        </mxCell>
        <mxCell id="NZGxTVPPBpQnY7gY4zcs-26" value="Phone_number" style="ellipse;whiteSpace=wrap;html=1;fillColor=#ffe6cc;strokeColor=#d79b00;" parent="1" vertex="1">
          <mxGeometry x="670" y="85" width="100" height="40" as="geometry" />
        </mxCell>
        <mxCell id="NZGxTVPPBpQnY7gY4zcs-27" value="Email" style="ellipse;whiteSpace=wrap;html=1;fillColor=#ffe6cc;strokeColor=#d79b00;" parent="1" vertex="1">
          <mxGeometry x="680" y="40" width="60" height="40" as="geometry" />
        </mxCell>
        <mxCell id="NZGxTVPPBpQnY7gY4zcs-36" value="Has" style="rhombus;whiteSpace=wrap;html=1;fillColor=#60a917;strokeColor=#2D7600;fontColor=#ffffff;" parent="1" vertex="1">
          <mxGeometry x="395" y="100" width="80" height="40" as="geometry" />
        </mxCell>
        <mxCell id="NZGxTVPPBpQnY7gY4zcs-40" value="&lt;u&gt;Address_id&lt;/u&gt;" style="ellipse;whiteSpace=wrap;html=1;fillColor=#ffe6cc;strokeColor=#d79b00;" parent="1" vertex="1">
          <mxGeometry x="215" y="30" width="70" height="40" as="geometry" />
        </mxCell>
        <mxCell id="NZGxTVPPBpQnY7gY4zcs-41" value="" style="endArrow=none;html=1;rounded=0;entryX=0;entryY=1;entryDx=0;entryDy=0;exitX=1;exitY=0;exitDx=0;exitDy=0;" parent="1" source="NZGxTVPPBpQnY7gY4zcs-8" target="NZGxTVPPBpQnY7gY4zcs-40" edge="1">
          <mxGeometry width="50" height="50" relative="1" as="geometry">
            <mxPoint x="390" y="320" as="sourcePoint" />
            <mxPoint x="440" y="270" as="targetPoint" />
          </mxGeometry>
        </mxCell>
        <mxCell id="NZGxTVPPBpQnY7gY4zcs-42" value="Country" style="ellipse;whiteSpace=wrap;html=1;fillColor=#ffe6cc;strokeColor=#d79b00;" parent="1" vertex="1">
          <mxGeometry x="150" y="30" width="60" height="40" as="geometry" />
        </mxCell>
        <mxCell id="NZGxTVPPBpQnY7gY4zcs-43" value="City" style="ellipse;whiteSpace=wrap;html=1;fillColor=#ffe6cc;strokeColor=#d79b00;" parent="1" vertex="1">
          <mxGeometry x="80" y="30" width="60" height="40" as="geometry" />
        </mxCell>
        <mxCell id="NZGxTVPPBpQnY7gY4zcs-44" value="Street_name" style="ellipse;whiteSpace=wrap;html=1;fillColor=#ffe6cc;strokeColor=#d79b00;" parent="1" vertex="1">
          <mxGeometry x="55" y="120" width="80" height="40" as="geometry" />
        </mxCell>
        <mxCell id="NZGxTVPPBpQnY7gY4zcs-45" value="Street_number" style="ellipse;whiteSpace=wrap;html=1;fillColor=#ffe6cc;strokeColor=#d79b00;" parent="1" vertex="1">
          <mxGeometry x="135" y="140" width="90" height="40" as="geometry" />
        </mxCell>
        <mxCell id="NZGxTVPPBpQnY7gY4zcs-49" value="" style="endArrow=none;html=1;rounded=0;exitX=1;exitY=0.5;exitDx=0;exitDy=0;entryX=0;entryY=0.5;entryDx=0;entryDy=0;edgeStyle=orthogonalEdgeStyle;" parent="1" source="NZGxTVPPBpQnY7gY4zcs-36" target="NZGxTVPPBpQnY7gY4zcs-7" edge="1">
          <mxGeometry relative="1" as="geometry">
            <mxPoint x="330" y="310" as="sourcePoint" />
            <mxPoint x="490" y="310" as="targetPoint" />
          </mxGeometry>
        </mxCell>
        <mxCell id="NZGxTVPPBpQnY7gY4zcs-50" value="1" style="resizable=0;html=1;align=right;verticalAlign=bottom;" parent="NZGxTVPPBpQnY7gY4zcs-49" connectable="0" vertex="1">
          <mxGeometry x="1" relative="1" as="geometry">
            <mxPoint x="-60" y="20" as="offset" />
          </mxGeometry>
        </mxCell>
        <mxCell id="NZGxTVPPBpQnY7gY4zcs-51" value="" style="endArrow=none;html=1;rounded=0;entryX=1;entryY=0.5;entryDx=0;entryDy=0;exitX=0;exitY=0.5;exitDx=0;exitDy=0;edgeStyle=orthogonalEdgeStyle;" parent="1" source="NZGxTVPPBpQnY7gY4zcs-36" target="NZGxTVPPBpQnY7gY4zcs-8" edge="1">
          <mxGeometry relative="1" as="geometry">
            <mxPoint x="330" y="290" as="sourcePoint" />
            <mxPoint x="490" y="290" as="targetPoint" />
          </mxGeometry>
        </mxCell>
        <mxCell id="NZGxTVPPBpQnY7gY4zcs-52" value="1" style="resizable=0;html=1;align=right;verticalAlign=bottom;" parent="NZGxTVPPBpQnY7gY4zcs-51" connectable="0" vertex="1">
          <mxGeometry x="1" relative="1" as="geometry">
            <mxPoint x="20" as="offset" />
          </mxGeometry>
        </mxCell>
        <mxCell id="NZGxTVPPBpQnY7gY4zcs-53" value="" style="endArrow=none;html=1;rounded=0;entryX=0.5;entryY=1;entryDx=0;entryDy=0;exitX=0.5;exitY=0;exitDx=0;exitDy=0;" parent="1" source="NZGxTVPPBpQnY7gY4zcs-8" target="NZGxTVPPBpQnY7gY4zcs-42" edge="1">
          <mxGeometry width="50" height="50" relative="1" as="geometry">
            <mxPoint x="205" y="100" as="sourcePoint" />
            <mxPoint x="255" y="65" as="targetPoint" />
          </mxGeometry>
        </mxCell>
        <mxCell id="NZGxTVPPBpQnY7gY4zcs-54" value="" style="endArrow=none;html=1;rounded=0;entryX=1;entryY=1;entryDx=0;entryDy=0;exitX=0;exitY=0;exitDx=0;exitDy=0;exitPerimeter=0;" parent="1" source="NZGxTVPPBpQnY7gY4zcs-8" target="NZGxTVPPBpQnY7gY4zcs-43" edge="1">
          <mxGeometry width="50" height="50" relative="1" as="geometry">
            <mxPoint x="190" y="100" as="sourcePoint" />
            <mxPoint x="170" y="65" as="targetPoint" />
          </mxGeometry>
        </mxCell>
        <mxCell id="NZGxTVPPBpQnY7gY4zcs-55" value="" style="endArrow=none;html=1;rounded=0;exitX=0;exitY=1;exitDx=0;exitDy=0;" parent="1" source="NZGxTVPPBpQnY7gY4zcs-8" edge="1">
          <mxGeometry width="50" height="50" relative="1" as="geometry">
            <mxPoint x="160" y="100" as="sourcePoint" />
            <mxPoint x="130" y="130" as="targetPoint" />
          </mxGeometry>
        </mxCell>
        <mxCell id="NZGxTVPPBpQnY7gY4zcs-56" value="" style="endArrow=none;html=1;rounded=0;entryX=0.5;entryY=0;entryDx=0;entryDy=0;exitX=0.5;exitY=1;exitDx=0;exitDy=0;" parent="1" source="NZGxTVPPBpQnY7gY4zcs-8" target="NZGxTVPPBpQnY7gY4zcs-45" edge="1">
          <mxGeometry width="50" height="50" relative="1" as="geometry">
            <mxPoint x="160" y="130" as="sourcePoint" />
            <mxPoint x="130" y="140" as="targetPoint" />
          </mxGeometry>
        </mxCell>
        <mxCell id="NZGxTVPPBpQnY7gY4zcs-58" value="First_name" style="ellipse;whiteSpace=wrap;html=1;fillColor=#ffe6cc;strokeColor=#d79b00;" parent="1" vertex="1">
          <mxGeometry x="530" y="10" width="70" height="40" as="geometry" />
        </mxCell>
        <mxCell id="NZGxTVPPBpQnY7gY4zcs-59" value="Last_name" style="ellipse;whiteSpace=wrap;html=1;fillColor=#ffe6cc;strokeColor=#d79b00;" parent="1" vertex="1">
          <mxGeometry x="610" y="10" width="70" height="40" as="geometry" />
        </mxCell>
        <mxCell id="NZGxTVPPBpQnY7gY4zcs-62" value="Bank_account" style="ellipse;whiteSpace=wrap;html=1;fillColor=#ffe6cc;strokeColor=#d79b00;" parent="1" vertex="1">
          <mxGeometry x="670" y="135.00000000000003" width="100" height="40" as="geometry" />
        </mxCell>
        <mxCell id="NZGxTVPPBpQnY7gY4zcs-63" value="Zip" style="ellipse;whiteSpace=wrap;html=1;fillColor=#ffe6cc;strokeColor=#d79b00;" parent="1" vertex="1">
          <mxGeometry x="50" y="70" width="60" height="40" as="geometry" />
        </mxCell>
        <mxCell id="NZGxTVPPBpQnY7gY4zcs-68" value="Phone_number" style="ellipse;whiteSpace=wrap;html=1;fillColor=#ffe6cc;strokeColor=#d79b00;" parent="1" vertex="1">
          <mxGeometry x="160" y="352.5" width="97.5" height="27.5" as="geometry" />
        </mxCell>
        <mxCell id="NZGxTVPPBpQnY7gY4zcs-69" value="Email" style="ellipse;whiteSpace=wrap;html=1;fillColor=#ffe6cc;strokeColor=#d79b00;" parent="1" vertex="1">
          <mxGeometry x="90" y="325" width="60" height="25" as="geometry" />
        </mxCell>
        <mxCell id="NZGxTVPPBpQnY7gY4zcs-70" value="company_name" style="ellipse;whiteSpace=wrap;html=1;fillColor=#ffe6cc;strokeColor=#d79b00;" parent="1" vertex="1">
          <mxGeometry x="45" y="285" width="110" height="30" as="geometry" />
        </mxCell>
        <mxCell id="NZGxTVPPBpQnY7gY4zcs-71" value="&lt;u&gt;seller_id&lt;/u&gt;" style="ellipse;whiteSpace=wrap;html=1;fillColor=#ffe6cc;strokeColor=#d79b00;" parent="1" vertex="1">
          <mxGeometry x="110" y="247.5" width="80" height="30" as="geometry" />
        </mxCell>
        <mxCell id="NZGxTVPPBpQnY7gY4zcs-72" value="Bank_account" style="ellipse;whiteSpace=wrap;html=1;fillColor=#ffe6cc;strokeColor=#d79b00;" parent="1" vertex="1">
          <mxGeometry x="280" y="350" width="80" height="30" as="geometry" />
        </mxCell>
        <mxCell id="NZGxTVPPBpQnY7gY4zcs-74" value="" style="endArrow=none;html=1;rounded=0;entryX=0.978;entryY=0.634;entryDx=0;entryDy=0;exitX=0;exitY=0.5;exitDx=0;exitDy=0;entryPerimeter=0;" parent="1" source="NZGxTVPPBpQnY7gY4zcs-8" target="NZGxTVPPBpQnY7gY4zcs-63" edge="1">
          <mxGeometry width="50" height="50" relative="1" as="geometry">
            <mxPoint x="195" y="120" as="sourcePoint" />
            <mxPoint x="230" y="140" as="targetPoint" />
          </mxGeometry>
        </mxCell>
        <mxCell id="NZGxTVPPBpQnY7gY4zcs-89" value="" style="endArrow=none;html=1;rounded=0;entryX=0.5;entryY=0;entryDx=0;entryDy=0;exitX=0.5;exitY=1;exitDx=0;exitDy=0;" parent="1" source="wFBHhmgZutTLUgVW9beC-30" target="NZGxTVPPBpQnY7gY4zcs-9" edge="1">
          <mxGeometry relative="1" as="geometry">
            <mxPoint x="255" y="245" as="sourcePoint" />
            <mxPoint x="590" y="350" as="targetPoint" />
          </mxGeometry>
        </mxCell>
        <mxCell id="NZGxTVPPBpQnY7gY4zcs-90" value="1" style="resizable=0;html=1;align=right;verticalAlign=bottom;direction=south;" parent="NZGxTVPPBpQnY7gY4zcs-89" connectable="0" vertex="1">
          <mxGeometry x="1" relative="1" as="geometry">
            <mxPoint x="-5" y="-40" as="offset" />
          </mxGeometry>
        </mxCell>
        <mxCell id="NZGxTVPPBpQnY7gY4zcs-91" value="" style="endArrow=none;html=1;rounded=0;entryX=1;entryY=0.75;entryDx=0;entryDy=0;edgeStyle=orthogonalEdgeStyle;exitX=0.5;exitY=0;exitDx=0;exitDy=0;" parent="1" source="wFBHhmgZutTLUgVW9beC-30" target="NZGxTVPPBpQnY7gY4zcs-8" edge="1">
          <mxGeometry relative="1" as="geometry">
            <mxPoint x="270" y="150" as="sourcePoint" />
            <mxPoint x="590" y="320" as="targetPoint" />
            <Array as="points">
              <mxPoint x="255" y="113" />
            </Array>
          </mxGeometry>
        </mxCell>
        <mxCell id="NZGxTVPPBpQnY7gY4zcs-92" value="1" style="resizable=0;html=1;align=right;verticalAlign=bottom;" parent="NZGxTVPPBpQnY7gY4zcs-91" connectable="0" vertex="1">
          <mxGeometry x="1" relative="1" as="geometry">
            <mxPoint x="41" y="58" as="offset" />
          </mxGeometry>
        </mxCell>
        <mxCell id="NZGxTVPPBpQnY7gY4zcs-99" value="Contains" style="shape=rhombus;double=1;perimeter=rhombusPerimeter;whiteSpace=wrap;html=1;align=center;fillColor=#60a917;fontColor=#ffffff;strokeColor=#2D7600;" parent="1" vertex="1">
          <mxGeometry x="430" y="247.5" width="90" height="45" as="geometry" />
        </mxCell>
        <mxCell id="NZGxTVPPBpQnY7gY4zcs-100" value="Contains" style="shape=rhombus;double=1;perimeter=rhombusPerimeter;whiteSpace=wrap;html=1;align=center;fillColor=#60a917;fontColor=#ffffff;strokeColor=#2D7600;" parent="1" vertex="1">
          <mxGeometry x="545" y="320" width="90" height="45" as="geometry" />
        </mxCell>
        <mxCell id="NZGxTVPPBpQnY7gY4zcs-101" value="Contains" style="shape=rhombus;double=1;perimeter=rhombusPerimeter;whiteSpace=wrap;html=1;align=center;fillColor=#60a917;fontColor=#ffffff;strokeColor=#2D7600;" parent="1" vertex="1">
          <mxGeometry x="545" y="175" width="90" height="45" as="geometry" />
        </mxCell>
        <mxCell id="NZGxTVPPBpQnY7gY4zcs-104" value="" style="shape=link;html=1;rounded=0;exitX=1;exitY=0.5;exitDx=0;exitDy=0;entryX=0;entryY=0.5;entryDx=0;entryDy=0;" parent="1" source="NZGxTVPPBpQnY7gY4zcs-99" target="NZGxTVPPBpQnY7gY4zcs-10" edge="1">
          <mxGeometry relative="1" as="geometry">
            <mxPoint x="430" y="320" as="sourcePoint" />
            <mxPoint x="590" y="320" as="targetPoint" />
          </mxGeometry>
        </mxCell>
        <mxCell id="NZGxTVPPBpQnY7gY4zcs-105" value="N" style="resizable=0;html=1;align=right;verticalAlign=bottom;" parent="NZGxTVPPBpQnY7gY4zcs-104" connectable="0" vertex="1">
          <mxGeometry x="1" relative="1" as="geometry">
            <mxPoint x="-15" y="-7" as="offset" />
          </mxGeometry>
        </mxCell>
        <mxCell id="NZGxTVPPBpQnY7gY4zcs-106" value="" style="endArrow=none;html=1;rounded=0;exitX=1;exitY=0.5;exitDx=0;exitDy=0;entryX=0;entryY=0.5;entryDx=0;entryDy=0;edgeStyle=orthogonalEdgeStyle;" parent="1" source="NZGxTVPPBpQnY7gY4zcs-9" target="NZGxTVPPBpQnY7gY4zcs-99" edge="1">
          <mxGeometry relative="1" as="geometry">
            <mxPoint x="430" y="320" as="sourcePoint" />
            <mxPoint x="590" y="320" as="targetPoint" />
            <Array as="points">
              <mxPoint x="340" y="300" />
              <mxPoint x="340" y="270" />
            </Array>
          </mxGeometry>
        </mxCell>
        <mxCell id="NZGxTVPPBpQnY7gY4zcs-107" value="1" style="resizable=0;html=1;align=right;verticalAlign=bottom;" parent="NZGxTVPPBpQnY7gY4zcs-106" connectable="0" vertex="1">
          <mxGeometry x="1" relative="1" as="geometry">
            <mxPoint x="-10" as="offset" />
          </mxGeometry>
        </mxCell>
        <mxCell id="NZGxTVPPBpQnY7gY4zcs-108" value="" style="shape=link;html=1;rounded=0;exitX=0.5;exitY=1;exitDx=0;exitDy=0;entryX=0.5;entryY=0;entryDx=0;entryDy=0;" parent="1" source="NZGxTVPPBpQnY7gY4zcs-101" target="NZGxTVPPBpQnY7gY4zcs-10" edge="1">
          <mxGeometry relative="1" as="geometry">
            <mxPoint x="530" y="280" as="sourcePoint" />
            <mxPoint x="570" y="280" as="targetPoint" />
          </mxGeometry>
        </mxCell>
        <mxCell id="NZGxTVPPBpQnY7gY4zcs-109" value="N" style="resizable=0;html=1;align=right;verticalAlign=bottom;" parent="NZGxTVPPBpQnY7gY4zcs-108" connectable="0" vertex="1">
          <mxGeometry x="1" relative="1" as="geometry">
            <mxPoint x="30" y="-7" as="offset" />
          </mxGeometry>
        </mxCell>
        <mxCell id="NZGxTVPPBpQnY7gY4zcs-110" value="" style="endArrow=none;html=1;rounded=0;entryX=0.5;entryY=1;entryDx=0;entryDy=0;exitX=0.5;exitY=0;exitDx=0;exitDy=0;edgeStyle=elbowEdgeStyle;" parent="1" source="NZGxTVPPBpQnY7gY4zcs-101" target="NZGxTVPPBpQnY7gY4zcs-7" edge="1">
          <mxGeometry relative="1" as="geometry">
            <mxPoint x="430" y="320" as="sourcePoint" />
            <mxPoint x="590" y="320" as="targetPoint" />
            <Array as="points">
              <mxPoint x="590" y="150" />
            </Array>
          </mxGeometry>
        </mxCell>
        <mxCell id="NZGxTVPPBpQnY7gY4zcs-111" value="1" style="resizable=0;html=1;align=right;verticalAlign=bottom;" parent="NZGxTVPPBpQnY7gY4zcs-110" connectable="0" vertex="1">
          <mxGeometry x="1" relative="1" as="geometry">
            <mxPoint x="20" y="25" as="offset" />
          </mxGeometry>
        </mxCell>
        <mxCell id="NZGxTVPPBpQnY7gY4zcs-113" value="" style="shape=link;html=1;rounded=0;exitX=0.5;exitY=0;exitDx=0;exitDy=0;entryX=0.5;entryY=1;entryDx=0;entryDy=0;" parent="1" source="NZGxTVPPBpQnY7gY4zcs-100" target="NZGxTVPPBpQnY7gY4zcs-10" edge="1">
          <mxGeometry relative="1" as="geometry">
            <mxPoint x="600" y="229.9999999999999" as="sourcePoint" />
            <mxPoint x="600" y="265" as="targetPoint" />
          </mxGeometry>
        </mxCell>
        <mxCell id="NZGxTVPPBpQnY7gY4zcs-114" value="N" style="resizable=0;html=1;align=right;verticalAlign=bottom;" parent="NZGxTVPPBpQnY7gY4zcs-113" connectable="0" vertex="1">
          <mxGeometry x="1" relative="1" as="geometry">
            <mxPoint x="20" y="25" as="offset" />
          </mxGeometry>
        </mxCell>
        <mxCell id="NZGxTVPPBpQnY7gY4zcs-115" value="" style="endArrow=none;html=1;rounded=0;entryX=0.5;entryY=0;entryDx=0;entryDy=0;exitX=0.5;exitY=1;exitDx=0;exitDy=0;" parent="1" source="NZGxTVPPBpQnY7gY4zcs-100" target="NZGxTVPPBpQnY7gY4zcs-11" edge="1">
          <mxGeometry relative="1" as="geometry">
            <mxPoint x="360" y="530" as="sourcePoint" />
            <mxPoint x="520" y="530" as="targetPoint" />
          </mxGeometry>
        </mxCell>
        <mxCell id="NZGxTVPPBpQnY7gY4zcs-116" value="1" style="resizable=0;html=1;align=right;verticalAlign=bottom;" parent="NZGxTVPPBpQnY7gY4zcs-115" connectable="0" vertex="1">
          <mxGeometry x="1" relative="1" as="geometry">
            <mxPoint x="20" y="-10" as="offset" />
          </mxGeometry>
        </mxCell>
        <mxCell id="NZGxTVPPBpQnY7gY4zcs-119" value="&lt;u&gt;Offer_id&lt;/u&gt;" style="ellipse;whiteSpace=wrap;html=1;fillColor=#ffe6cc;strokeColor=#d79b00;" parent="1" vertex="1">
          <mxGeometry x="445" y="400" width="60" height="40" as="geometry" />
        </mxCell>
        <mxCell id="NZGxTVPPBpQnY7gY4zcs-122" value="" style="endArrow=none;html=1;rounded=0;exitX=0;exitY=0.5;exitDx=0;exitDy=0;entryX=1;entryY=0.5;entryDx=0;entryDy=0;" parent="1" source="NZGxTVPPBpQnY7gY4zcs-11" target="NZGxTVPPBpQnY7gY4zcs-119" edge="1">
          <mxGeometry width="50" height="50" relative="1" as="geometry">
            <mxPoint x="530" y="370" as="sourcePoint" />
            <mxPoint x="530" y="380" as="targetPoint" />
          </mxGeometry>
        </mxCell>
        <mxCell id="NZGxTVPPBpQnY7gY4zcs-126" value="" style="endArrow=none;html=1;rounded=0;entryX=0.5;entryY=1;entryDx=0;entryDy=0;exitX=0.5;exitY=0;exitDx=0;exitDy=0;" parent="1" source="wFBHhmgZutTLUgVW9beC-28" target="NZGxTVPPBpQnY7gY4zcs-11" edge="1">
          <mxGeometry relative="1" as="geometry">
            <mxPoint x="610" y="460" as="sourcePoint" />
            <mxPoint x="520" y="460" as="targetPoint" />
          </mxGeometry>
        </mxCell>
        <mxCell id="NZGxTVPPBpQnY7gY4zcs-127" value="1" style="resizable=0;html=1;align=right;verticalAlign=bottom;" parent="NZGxTVPPBpQnY7gY4zcs-126" connectable="0" vertex="1">
          <mxGeometry x="1" relative="1" as="geometry">
            <mxPoint x="-10" y="20" as="offset" />
          </mxGeometry>
        </mxCell>
        <mxCell id="NZGxTVPPBpQnY7gY4zcs-128" value="" style="endArrow=none;html=1;rounded=0;entryX=1;entryY=0.25;entryDx=0;entryDy=0;edgeStyle=orthogonalEdgeStyle;exitX=0.5;exitY=1;exitDx=0;exitDy=0;" parent="1" source="wFBHhmgZutTLUgVW9beC-28" target="NZGxTVPPBpQnY7gY4zcs-12" edge="1">
          <mxGeometry relative="1" as="geometry">
            <mxPoint x="590" y="550" as="sourcePoint" />
            <mxPoint x="500" y="490" as="targetPoint" />
          </mxGeometry>
        </mxCell>
        <mxCell id="NZGxTVPPBpQnY7gY4zcs-129" value="1" style="resizable=0;html=1;align=right;verticalAlign=bottom;" parent="NZGxTVPPBpQnY7gY4zcs-128" connectable="0" vertex="1">
          <mxGeometry x="1" relative="1" as="geometry">
            <mxPoint x="20" y="-10" as="offset" />
          </mxGeometry>
        </mxCell>
        <mxCell id="NZGxTVPPBpQnY7gY4zcs-130" value="Brand_name" style="ellipse;whiteSpace=wrap;html=1;fillColor=#ffe6cc;strokeColor=#d79b00;" parent="1" vertex="1">
          <mxGeometry x="65" y="425.17" width="90" height="40" as="geometry" />
        </mxCell>
        <mxCell id="NZGxTVPPBpQnY7gY4zcs-132" value="Model" style="ellipse;whiteSpace=wrap;html=1;fillColor=#ffe6cc;strokeColor=#d79b00;" parent="1" vertex="1">
          <mxGeometry x="75" y="480.17" width="60" height="40" as="geometry" />
        </mxCell>
        <mxCell id="NZGxTVPPBpQnY7gY4zcs-134" value="Milage" style="ellipse;whiteSpace=wrap;html=1;fillColor=#ffe6cc;strokeColor=#d79b00;" parent="1" vertex="1">
          <mxGeometry x="75" y="585.17" width="60" height="40" as="geometry" />
        </mxCell>
        <mxCell id="NZGxTVPPBpQnY7gY4zcs-135" value="Year" style="ellipse;whiteSpace=wrap;html=1;fillColor=#ffe6cc;strokeColor=#d79b00;" parent="1" vertex="1">
          <mxGeometry x="75" y="535.17" width="60" height="40" as="geometry" />
        </mxCell>
        <mxCell id="NZGxTVPPBpQnY7gY4zcs-138" value="&lt;div&gt;&lt;u&gt;vin_code&lt;/u&gt;&lt;/div&gt;" style="ellipse;whiteSpace=wrap;html=1;fillColor=#ffe6cc;strokeColor=#d79b00;" parent="1" vertex="1">
          <mxGeometry x="170.25" y="425.17" width="99.5" height="40" as="geometry" />
        </mxCell>
        <mxCell id="NZGxTVPPBpQnY7gY4zcs-163" value="Color_name" style="ellipse;whiteSpace=wrap;html=1;fillColor=#ffe6cc;strokeColor=#d79b00;" parent="1" vertex="1">
          <mxGeometry x="617.5" y="660.17" width="70" height="40" as="geometry" />
        </mxCell>
        <mxCell id="NZGxTVPPBpQnY7gY4zcs-164" value="&lt;u&gt;Color_id&lt;/u&gt;" style="ellipse;whiteSpace=wrap;html=1;fillColor=#ffe6cc;strokeColor=#d79b00;" parent="1" vertex="1">
          <mxGeometry x="622.5" y="540.17" width="60" height="40" as="geometry" />
        </mxCell>
        <mxCell id="NZGxTVPPBpQnY7gY4zcs-166" value="" style="endArrow=none;html=1;rounded=0;entryX=0.5;entryY=1;entryDx=0;entryDy=0;exitX=0.5;exitY=0;exitDx=0;exitDy=0;" parent="1" source="NZGxTVPPBpQnY7gY4zcs-163" target="NZGxTVPPBpQnY7gY4zcs-15" edge="1">
          <mxGeometry width="50" height="50" relative="1" as="geometry">
            <mxPoint x="900" y="635.17" as="sourcePoint" />
            <mxPoint x="900" y="615.17" as="targetPoint" />
          </mxGeometry>
        </mxCell>
        <mxCell id="NZGxTVPPBpQnY7gY4zcs-169" value="Gearbox_type" style="ellipse;whiteSpace=wrap;html=1;fillColor=#ffe6cc;strokeColor=#d79b00;" parent="1" vertex="1">
          <mxGeometry x="160" y="620.17" width="90" height="44.83" as="geometry" />
        </mxCell>
        <mxCell id="NZGxTVPPBpQnY7gY4zcs-173" value="" style="endArrow=none;html=1;rounded=0;exitX=0.5;exitY=0;exitDx=0;exitDy=0;entryX=0.5;entryY=1;entryDx=0;entryDy=0;" parent="1" source="NZGxTVPPBpQnY7gY4zcs-15" target="NZGxTVPPBpQnY7gY4zcs-164" edge="1">
          <mxGeometry width="50" height="50" relative="1" as="geometry">
            <mxPoint x="490" y="665.17" as="sourcePoint" />
            <mxPoint x="465" y="700.17" as="targetPoint" />
          </mxGeometry>
        </mxCell>
        <mxCell id="NZGxTVPPBpQnY7gY4zcs-179" value="&lt;u&gt;engine_code&lt;/u&gt;" style="ellipse;whiteSpace=wrap;html=1;fillColor=#ffe6cc;strokeColor=#d79b00;" parent="1" vertex="1">
          <mxGeometry x="585" y="732.67" width="95" height="35" as="geometry" />
        </mxCell>
        <mxCell id="NZGxTVPPBpQnY7gY4zcs-180" value="" style="endArrow=none;html=1;rounded=0;exitX=1;exitY=0.5;exitDx=0;exitDy=0;entryX=0;entryY=0.5;entryDx=0;entryDy=0;" parent="1" source="NZGxTVPPBpQnY7gY4zcs-13" target="NZGxTVPPBpQnY7gY4zcs-179" edge="1">
          <mxGeometry width="50" height="50" relative="1" as="geometry">
            <mxPoint x="580" y="725.17" as="sourcePoint" />
            <mxPoint x="630" y="675.17" as="targetPoint" />
          </mxGeometry>
        </mxCell>
        <mxCell id="NZGxTVPPBpQnY7gY4zcs-188" value="" style="endArrow=none;html=1;rounded=0;entryX=1;entryY=0.75;entryDx=0;entryDy=0;edgeStyle=orthogonalEdgeStyle;exitX=0.5;exitY=0;exitDx=0;exitDy=0;" parent="1" source="wFBHhmgZutTLUgVW9beC-29" target="NZGxTVPPBpQnY7gY4zcs-12" edge="1">
          <mxGeometry relative="1" as="geometry">
            <mxPoint x="520" y="560" as="sourcePoint" />
            <mxPoint x="600" y="510" as="targetPoint" />
          </mxGeometry>
        </mxCell>
        <mxCell id="NZGxTVPPBpQnY7gY4zcs-189" value="1" style="resizable=0;html=1;align=right;verticalAlign=bottom;" parent="NZGxTVPPBpQnY7gY4zcs-188" connectable="0" vertex="1">
          <mxGeometry x="1" relative="1" as="geometry">
            <mxPoint x="21" y="28" as="offset" />
          </mxGeometry>
        </mxCell>
        <mxCell id="NZGxTVPPBpQnY7gY4zcs-193" value="Condition" style="ellipse;whiteSpace=wrap;html=1;fillColor=#ffe6cc;strokeColor=#d79b00;" parent="1" vertex="1">
          <mxGeometry x="250" y="585.17" width="60" height="40" as="geometry" />
        </mxCell>
        <mxCell id="NZGxTVPPBpQnY7gY4zcs-198" value="Selling_price" style="ellipse;whiteSpace=wrap;html=1;fillColor=#ffe6cc;strokeColor=#d79b00;" parent="1" vertex="1">
          <mxGeometry x="655" y="440" width="80" height="40" as="geometry" />
        </mxCell>
        <mxCell id="NZGxTVPPBpQnY7gY4zcs-199" value="Retail_price" style="ellipse;whiteSpace=wrap;html=1;fillColor=#ffe6cc;strokeColor=#d79b00;" parent="1" vertex="1">
          <mxGeometry x="660" y="360" width="70" height="40" as="geometry" />
        </mxCell>
        <mxCell id="NZGxTVPPBpQnY7gY4zcs-206" value="Engine_capacity" style="ellipse;whiteSpace=wrap;html=1;fillColor=#ffe6cc;strokeColor=#d79b00;" parent="1" vertex="1">
          <mxGeometry x="395" y="795.17" width="100" height="40" as="geometry" />
        </mxCell>
        <mxCell id="NZGxTVPPBpQnY7gY4zcs-210" value="Engine_type" style="ellipse;whiteSpace=wrap;html=1;fillColor=#ffe6cc;strokeColor=#d79b00;" parent="1" vertex="1">
          <mxGeometry x="535" y="795.17" width="100" height="40" as="geometry" />
        </mxCell>
        <mxCell id="NZGxTVPPBpQnY7gY4zcs-215" value="Engine_power" style="ellipse;whiteSpace=wrap;html=1;fillColor=#ffe6cc;strokeColor=#d79b00;" parent="1" vertex="1">
          <mxGeometry x="340" y="730.17" width="100" height="40" as="geometry" />
        </mxCell>
        <mxCell id="wFBHhmgZutTLUgVW9beC-4" value="" style="endArrow=none;html=1;rounded=0;entryX=0.75;entryY=1;entryDx=0;entryDy=0;exitX=0.5;exitY=0;exitDx=0;exitDy=0;edgeStyle=orthogonalEdgeStyle;" edge="1" parent="1" source="NZGxTVPPBpQnY7gY4zcs-210" target="NZGxTVPPBpQnY7gY4zcs-13">
          <mxGeometry width="50" height="50" relative="1" as="geometry">
            <mxPoint x="780" y="845.17" as="sourcePoint" />
            <mxPoint x="830" y="795.17" as="targetPoint" />
          </mxGeometry>
        </mxCell>
        <mxCell id="wFBHhmgZutTLUgVW9beC-5" value="" style="endArrow=none;html=1;rounded=0;entryX=0.25;entryY=1;entryDx=0;entryDy=0;exitX=0.5;exitY=0;exitDx=0;exitDy=0;edgeStyle=orthogonalEdgeStyle;" edge="1" parent="1" source="NZGxTVPPBpQnY7gY4zcs-206" target="NZGxTVPPBpQnY7gY4zcs-13">
          <mxGeometry width="50" height="50" relative="1" as="geometry">
            <mxPoint x="780" y="845.17" as="sourcePoint" />
            <mxPoint x="830" y="795.17" as="targetPoint" />
          </mxGeometry>
        </mxCell>
        <mxCell id="wFBHhmgZutTLUgVW9beC-6" value="" style="endArrow=none;html=1;rounded=0;entryX=0;entryY=0.5;entryDx=0;entryDy=0;exitX=1;exitY=0.5;exitDx=0;exitDy=0;edgeStyle=orthogonalEdgeStyle;" edge="1" parent="1" source="NZGxTVPPBpQnY7gY4zcs-215" target="NZGxTVPPBpQnY7gY4zcs-13">
          <mxGeometry width="50" height="50" relative="1" as="geometry">
            <mxPoint x="780" y="845.17" as="sourcePoint" />
            <mxPoint x="830" y="795.17" as="targetPoint" />
          </mxGeometry>
        </mxCell>
        <mxCell id="wFBHhmgZutTLUgVW9beC-12" value="" style="shape=link;html=1;rounded=0;exitX=0;exitY=0.5;exitDx=0;exitDy=0;edgeStyle=orthogonalEdgeStyle;entryX=1;entryY=0.5;entryDx=0;entryDy=0;" edge="1" parent="1" source="NZGxTVPPBpQnY7gY4zcs-15" target="wFBHhmgZutTLUgVW9beC-29">
          <mxGeometry relative="1" as="geometry">
            <mxPoint x="520" y="200.17000000000002" as="sourcePoint" />
            <mxPoint x="570" y="590" as="targetPoint" />
          </mxGeometry>
        </mxCell>
        <mxCell id="wFBHhmgZutTLUgVW9beC-13" value="N" style="resizable=0;html=1;align=right;verticalAlign=bottom;" connectable="0" vertex="1" parent="wFBHhmgZutTLUgVW9beC-12">
          <mxGeometry x="1" relative="1" as="geometry">
            <mxPoint x="20" y="25" as="offset" />
          </mxGeometry>
        </mxCell>
        <mxCell id="wFBHhmgZutTLUgVW9beC-15" value="" style="shape=link;html=1;rounded=0;exitX=0.5;exitY=0;exitDx=0;exitDy=0;edgeStyle=orthogonalEdgeStyle;entryX=0.5;entryY=1;entryDx=0;entryDy=0;" edge="1" parent="1" source="NZGxTVPPBpQnY7gY4zcs-13" target="wFBHhmgZutTLUgVW9beC-29">
          <mxGeometry relative="1" as="geometry">
            <mxPoint x="630" y="630.17" as="sourcePoint" />
            <mxPoint x="490" y="650" as="targetPoint" />
          </mxGeometry>
        </mxCell>
        <mxCell id="wFBHhmgZutTLUgVW9beC-16" value="N" style="resizable=0;html=1;align=right;verticalAlign=bottom;" connectable="0" vertex="1" parent="wFBHhmgZutTLUgVW9beC-15">
          <mxGeometry x="1" relative="1" as="geometry">
            <mxPoint x="20" y="25" as="offset" />
          </mxGeometry>
        </mxCell>
        <mxCell id="wFBHhmgZutTLUgVW9beC-17" value="" style="endArrow=none;html=1;rounded=0;exitX=1;exitY=0.25;exitDx=0;exitDy=0;entryX=0.5;entryY=1;entryDx=0;entryDy=0;edgeStyle=orthogonalEdgeStyle;" edge="1" parent="1" source="NZGxTVPPBpQnY7gY4zcs-11" target="NZGxTVPPBpQnY7gY4zcs-199">
          <mxGeometry width="50" height="50" relative="1" as="geometry">
            <mxPoint x="560" y="430.1700000000001" as="sourcePoint" />
            <mxPoint x="515" y="430" as="targetPoint" />
          </mxGeometry>
        </mxCell>
        <mxCell id="wFBHhmgZutTLUgVW9beC-18" value="" style="endArrow=none;html=1;rounded=0;exitX=1;exitY=0.75;exitDx=0;exitDy=0;entryX=0.5;entryY=0;entryDx=0;entryDy=0;edgeStyle=orthogonalEdgeStyle;" edge="1" parent="1" source="NZGxTVPPBpQnY7gY4zcs-11" target="NZGxTVPPBpQnY7gY4zcs-198">
          <mxGeometry width="50" height="50" relative="1" as="geometry">
            <mxPoint x="640" y="420.1700000000001" as="sourcePoint" />
            <mxPoint x="705" y="410" as="targetPoint" />
          </mxGeometry>
        </mxCell>
        <mxCell id="wFBHhmgZutTLUgVW9beC-19" value="" style="endArrow=none;html=1;rounded=0;exitX=0.5;exitY=1;exitDx=0;exitDy=0;entryX=0.5;entryY=0;entryDx=0;entryDy=0;edgeStyle=orthogonalEdgeStyle;" edge="1" parent="1" source="NZGxTVPPBpQnY7gY4zcs-138" target="NZGxTVPPBpQnY7gY4zcs-12">
          <mxGeometry width="50" height="50" relative="1" as="geometry">
            <mxPoint x="470" y="395.3400000000001" as="sourcePoint" />
            <mxPoint x="535" y="405.17" as="targetPoint" />
          </mxGeometry>
        </mxCell>
        <mxCell id="wFBHhmgZutTLUgVW9beC-20" value="" style="endArrow=none;html=1;rounded=0;exitX=1;exitY=1;exitDx=0;exitDy=0;entryX=0.25;entryY=0;entryDx=0;entryDy=0;edgeStyle=orthogonalEdgeStyle;" edge="1" parent="1" source="NZGxTVPPBpQnY7gY4zcs-130" target="NZGxTVPPBpQnY7gY4zcs-12">
          <mxGeometry width="50" height="50" relative="1" as="geometry">
            <mxPoint x="230" y="475.17" as="sourcePoint" />
            <mxPoint x="230" y="520.17" as="targetPoint" />
            <Array as="points">
              <mxPoint x="142" y="475.17" />
              <mxPoint x="205" y="475.17" />
            </Array>
          </mxGeometry>
        </mxCell>
        <mxCell id="wFBHhmgZutTLUgVW9beC-22" value="" style="endArrow=none;html=1;rounded=0;exitX=1;exitY=0.5;exitDx=0;exitDy=0;entryX=0;entryY=0.25;entryDx=0;entryDy=0;edgeStyle=orthogonalEdgeStyle;" edge="1" parent="1" source="NZGxTVPPBpQnY7gY4zcs-132" target="NZGxTVPPBpQnY7gY4zcs-12">
          <mxGeometry width="50" height="50" relative="1" as="geometry">
            <mxPoint x="230" y="475.17" as="sourcePoint" />
            <mxPoint x="230" y="520.17" as="targetPoint" />
          </mxGeometry>
        </mxCell>
        <mxCell id="wFBHhmgZutTLUgVW9beC-23" value="" style="endArrow=none;html=1;rounded=0;exitX=1;exitY=0.5;exitDx=0;exitDy=0;entryX=0;entryY=0.5;entryDx=0;entryDy=0;edgeStyle=orthogonalEdgeStyle;" edge="1" parent="1" source="NZGxTVPPBpQnY7gY4zcs-135" target="NZGxTVPPBpQnY7gY4zcs-12">
          <mxGeometry width="50" height="50" relative="1" as="geometry">
            <mxPoint x="230" y="475.17" as="sourcePoint" />
            <mxPoint x="230" y="520.17" as="targetPoint" />
          </mxGeometry>
        </mxCell>
        <mxCell id="wFBHhmgZutTLUgVW9beC-24" value="" style="endArrow=none;html=1;rounded=0;exitX=1;exitY=0.5;exitDx=0;exitDy=0;entryX=0;entryY=0.75;entryDx=0;entryDy=0;edgeStyle=orthogonalEdgeStyle;" edge="1" parent="1" source="NZGxTVPPBpQnY7gY4zcs-134" target="NZGxTVPPBpQnY7gY4zcs-12">
          <mxGeometry width="50" height="50" relative="1" as="geometry">
            <mxPoint x="230" y="475.17" as="sourcePoint" />
            <mxPoint x="230" y="520.17" as="targetPoint" />
            <Array as="points">
              <mxPoint x="170" y="605.17" />
              <mxPoint x="170" y="533.17" />
            </Array>
          </mxGeometry>
        </mxCell>
        <mxCell id="wFBHhmgZutTLUgVW9beC-26" value="" style="endArrow=none;html=1;rounded=0;exitX=0.25;exitY=1;exitDx=0;exitDy=0;entryX=0.5;entryY=0;entryDx=0;entryDy=0;edgeStyle=orthogonalEdgeStyle;" edge="1" parent="1" source="NZGxTVPPBpQnY7gY4zcs-12" target="NZGxTVPPBpQnY7gY4zcs-169">
          <mxGeometry width="50" height="50" relative="1" as="geometry">
            <mxPoint x="230" y="475.17" as="sourcePoint" />
            <mxPoint x="230" y="520.17" as="targetPoint" />
          </mxGeometry>
        </mxCell>
        <mxCell id="wFBHhmgZutTLUgVW9beC-27" value="" style="endArrow=none;html=1;rounded=0;exitX=0.75;exitY=1;exitDx=0;exitDy=0;entryX=0;entryY=0.5;entryDx=0;entryDy=0;edgeStyle=orthogonalEdgeStyle;" edge="1" parent="1" source="NZGxTVPPBpQnY7gY4zcs-12" target="NZGxTVPPBpQnY7gY4zcs-193">
          <mxGeometry width="50" height="50" relative="1" as="geometry">
            <mxPoint x="230" y="475.17" as="sourcePoint" />
            <mxPoint x="230" y="520.17" as="targetPoint" />
          </mxGeometry>
        </mxCell>
        <mxCell id="wFBHhmgZutTLUgVW9beC-28" value="Contains" style="shape=rhombus;double=1;perimeter=rhombusPerimeter;whiteSpace=wrap;html=1;align=center;fillColor=#60a917;fontColor=#ffffff;strokeColor=#2D7600;" vertex="1" parent="1">
          <mxGeometry x="545" y="465.16999999999996" width="90" height="40" as="geometry" />
        </mxCell>
        <mxCell id="wFBHhmgZutTLUgVW9beC-29" value="Has" style="shape=rhombus;double=1;perimeter=rhombusPerimeter;whiteSpace=wrap;html=1;align=center;fillColor=#60a917;fontColor=#ffffff;strokeColor=#2D7600;" vertex="1" parent="1">
          <mxGeometry x="465" y="600.17" width="90" height="40" as="geometry" />
        </mxCell>
        <mxCell id="wFBHhmgZutTLUgVW9beC-30" value="Contains" style="shape=rhombus;double=1;perimeter=rhombusPerimeter;whiteSpace=wrap;html=1;align=center;fillColor=#60a917;fontColor=#ffffff;strokeColor=#2D7600;" vertex="1" parent="1">
          <mxGeometry x="210" y="170" width="90" height="45" as="geometry" />
        </mxCell>
        <mxCell id="wFBHhmgZutTLUgVW9beC-33" value="" style="endArrow=none;html=1;rounded=0;entryX=0.5;entryY=1;entryDx=0;entryDy=0;exitX=0;exitY=0.25;exitDx=0;exitDy=0;edgeStyle=orthogonalEdgeStyle;" edge="1" parent="1" source="NZGxTVPPBpQnY7gY4zcs-7" target="NZGxTVPPBpQnY7gY4zcs-21">
          <mxGeometry width="50" height="50" relative="1" as="geometry">
            <mxPoint x="220" y="100" as="sourcePoint" />
            <mxPoint x="235.25126265847098" y="74.14213562373095" as="targetPoint" />
          </mxGeometry>
        </mxCell>
        <mxCell id="wFBHhmgZutTLUgVW9beC-34" value="" style="endArrow=none;html=1;rounded=0;entryX=0.5;entryY=1;entryDx=0;entryDy=0;exitX=0.25;exitY=0;exitDx=0;exitDy=0;edgeStyle=orthogonalEdgeStyle;" edge="1" parent="1" source="NZGxTVPPBpQnY7gY4zcs-7" target="NZGxTVPPBpQnY7gY4zcs-58">
          <mxGeometry width="50" height="50" relative="1" as="geometry">
            <mxPoint x="610" y="86" as="sourcePoint" />
            <mxPoint x="520" y="90" as="targetPoint" />
          </mxGeometry>
        </mxCell>
        <mxCell id="wFBHhmgZutTLUgVW9beC-35" value="" style="endArrow=none;html=1;rounded=0;entryX=0;entryY=1;entryDx=0;entryDy=0;exitX=0.5;exitY=0;exitDx=0;exitDy=0;edgeStyle=orthogonalEdgeStyle;" edge="1" parent="1" source="NZGxTVPPBpQnY7gY4zcs-7" target="NZGxTVPPBpQnY7gY4zcs-59">
          <mxGeometry width="50" height="50" relative="1" as="geometry">
            <mxPoint x="582.5" y="115" as="sourcePoint" />
            <mxPoint x="575" y="60" as="targetPoint" />
          </mxGeometry>
        </mxCell>
        <mxCell id="wFBHhmgZutTLUgVW9beC-36" value="" style="endArrow=none;html=1;rounded=0;entryX=0;entryY=0.5;entryDx=0;entryDy=0;edgeStyle=orthogonalEdgeStyle;exitX=0.75;exitY=0;exitDx=0;exitDy=0;" edge="1" parent="1" source="NZGxTVPPBpQnY7gY4zcs-7" target="NZGxTVPPBpQnY7gY4zcs-27">
          <mxGeometry width="50" height="50" relative="1" as="geometry">
            <mxPoint x="630" y="90" as="sourcePoint" />
            <mxPoint x="630.251262658471" y="54.14213562373084" as="targetPoint" />
            <Array as="points">
              <mxPoint x="608" y="90" />
              <mxPoint x="640" y="90" />
              <mxPoint x="640" y="60" />
            </Array>
          </mxGeometry>
        </mxCell>
        <mxCell id="wFBHhmgZutTLUgVW9beC-37" value="" style="endArrow=none;html=1;rounded=0;exitX=0;exitY=0.5;exitDx=0;exitDy=0;entryX=1;entryY=0.25;entryDx=0;entryDy=0;edgeStyle=orthogonalEdgeStyle;" edge="1" parent="1" source="NZGxTVPPBpQnY7gY4zcs-26" target="NZGxTVPPBpQnY7gY4zcs-7">
          <mxGeometry width="50" height="50" relative="1" as="geometry">
            <mxPoint x="560" y="430.1700000000001" as="sourcePoint" />
            <mxPoint x="520" y="430" as="targetPoint" />
          </mxGeometry>
        </mxCell>
        <mxCell id="wFBHhmgZutTLUgVW9beC-39" value="" style="endArrow=none;html=1;rounded=0;exitX=0;exitY=0.5;exitDx=0;exitDy=0;entryX=1;entryY=0.75;entryDx=0;entryDy=0;edgeStyle=orthogonalEdgeStyle;" edge="1" parent="1" source="NZGxTVPPBpQnY7gY4zcs-62" target="NZGxTVPPBpQnY7gY4zcs-7">
          <mxGeometry width="50" height="50" relative="1" as="geometry">
            <mxPoint x="727.5" y="200.17000000000007" as="sourcePoint" />
            <mxPoint x="682.5" y="200" as="targetPoint" />
          </mxGeometry>
        </mxCell>
        <mxCell id="wFBHhmgZutTLUgVW9beC-41" value="" style="endArrow=none;html=1;rounded=0;exitX=0.25;exitY=0;exitDx=0;exitDy=0;entryX=1;entryY=0.5;entryDx=0;entryDy=0;edgeStyle=orthogonalEdgeStyle;" edge="1" parent="1" source="NZGxTVPPBpQnY7gY4zcs-9" target="NZGxTVPPBpQnY7gY4zcs-71">
          <mxGeometry width="50" height="50" relative="1" as="geometry">
            <mxPoint x="160" y="130" as="sourcePoint" />
            <mxPoint x="140" y="140" as="targetPoint" />
          </mxGeometry>
        </mxCell>
        <mxCell id="wFBHhmgZutTLUgVW9beC-42" value="" style="endArrow=none;html=1;rounded=0;entryX=1;entryY=0.5;entryDx=0;entryDy=0;edgeStyle=orthogonalEdgeStyle;exitX=0;exitY=0.5;exitDx=0;exitDy=0;" edge="1" parent="1" source="NZGxTVPPBpQnY7gY4zcs-9" target="NZGxTVPPBpQnY7gY4zcs-70">
          <mxGeometry width="50" height="50" relative="1" as="geometry">
            <mxPoint x="200" y="300" as="sourcePoint" />
            <mxPoint x="200" y="272.5" as="targetPoint" />
          </mxGeometry>
        </mxCell>
        <mxCell id="wFBHhmgZutTLUgVW9beC-43" value="" style="endArrow=none;html=1;rounded=0;entryX=1;entryY=0.5;entryDx=0;entryDy=0;edgeStyle=orthogonalEdgeStyle;exitX=0;exitY=0.75;exitDx=0;exitDy=0;" edge="1" parent="1" source="NZGxTVPPBpQnY7gY4zcs-9" target="NZGxTVPPBpQnY7gY4zcs-69">
          <mxGeometry width="50" height="50" relative="1" as="geometry">
            <mxPoint x="190" y="330" as="sourcePoint" />
            <mxPoint x="165" y="310" as="targetPoint" />
          </mxGeometry>
        </mxCell>
        <mxCell id="wFBHhmgZutTLUgVW9beC-44" value="" style="endArrow=none;html=1;rounded=0;edgeStyle=orthogonalEdgeStyle;exitX=0.5;exitY=1;exitDx=0;exitDy=0;" edge="1" parent="1" source="NZGxTVPPBpQnY7gY4zcs-9" target="NZGxTVPPBpQnY7gY4zcs-68">
          <mxGeometry width="50" height="50" relative="1" as="geometry">
            <mxPoint x="215" y="310" as="sourcePoint" />
            <mxPoint x="165" y="310" as="targetPoint" />
          </mxGeometry>
        </mxCell>
        <mxCell id="wFBHhmgZutTLUgVW9beC-45" value="" style="endArrow=none;html=1;rounded=0;entryX=0.5;entryY=0;entryDx=0;entryDy=0;edgeStyle=orthogonalEdgeStyle;exitX=0.75;exitY=1;exitDx=0;exitDy=0;" edge="1" parent="1" source="NZGxTVPPBpQnY7gY4zcs-9" target="NZGxTVPPBpQnY7gY4zcs-72">
          <mxGeometry width="50" height="50" relative="1" as="geometry">
            <mxPoint x="215" y="310" as="sourcePoint" />
            <mxPoint x="165" y="310" as="targetPoint" />
          </mxGeometry>
        </mxCell>
      </root>
    </mxGraphModel>
  </diagram>
</mxfile>
